<svg version="1.2" xmlns="http://www.w3.org/2000/svg" viewBox="0 0 1500 1000" width="1500" height="1000"><defs><linearGradient id="P" gradientUnits="userSpaceOnUse"/><linearGradient id="g1" x1="425.5" y1="599.6" x2="425.5" y2="0" href="#P"><stop stop-color="#07073a"/><stop offset="1" stop-color="#25257f"/></linearGradient><clipPath clipPathUnits="userSpaceOnUse" id="cp1"><path d="m1500 1000h-1500v-1000h1500z"/></clipPath><linearGradient id="g2" x1="998" y1="1070.8" x2="1125.3" y2="1104.5" href="#P"><stop stop-color="#7f0b7f"/><stop offset="1" stop-color="#110d50"/></linearGradient><linearGradient id="g3" x1="118.3" y1="1077.4" x2="170.6" y2="959.6" href="#P"><stop stop-color="#7f0b7f"/><stop offset="1" stop-color="#110d50"/></linearGradient><linearGradient id="g4" x1="1290.3" y1="847.2" x2="1311.3" y2="843.1" href="#P"><stop stop-color="#110d50"/><stop offset="1" stop-color="#381268"/></linearGradient><linearGradient id="g5" x1="38.6" y1="562.7" x2="89.1" y2="597.3" href="#P"><stop stop-color="#110d50"/><stop offset="1" stop-color="#7f0b7f"/></linearGradient><linearGradient id="g6" x1="214.2" y1="135.5" x2="389.7" y2="-132.4" href="#P"><stop stop-color="#7f0b7f"/><stop offset="1" stop-color="#110d50"/></linearGradient><linearGradient id="g7" x1="346.5" y1="613.1" x2="194" y2="518.1" href="#P"><stop stop-color="#17125a"/><stop offset="1" stop-color="#5f46af"/></linearGradient><linearGradient id="g8" x1="393.1" y1="446.4" x2="403.9" y2="443" href="#P"><stop stop-color="#110d50"/><stop offset="1" stop-color="#7f0b7f"/></linearGradient><linearGradient id="g9" x1="1452.7" y1="472" x2="1469.9" y2="466.5" href="#P"><stop stop-color="#110d50"/><stop offset="1" stop-color="#7f0b7f"/></linearGradient><linearGradient id="g10" x1="1053.4" y1="356.4" x2="1031.3" y2="75.5" href="#P"><stop stop-color="#7f0b7f"/><stop offset="1" stop-color="#110d50"/></linearGradient><linearGradient id="g11" x1="1239.8" y1="638" x2="1319.5" y2="603" href="#P"><stop stop-color="#7f0b7f"/><stop offset="1" stop-color="#110d50"/></linearGradient></defs><style>.a{fill:url(#g1)}.b{fill:url(#g2)}.c{fill:url(#g3)}.d{fill:url(#g4)}.e{fill:url(#g5)}.f{fill:url(#g6)}.g{fill:url(#g7)}.h{fill:url(#g8)}.i{fill:url(#g9)}.j{fill:url(#g10)}.k{fill:url(#g11)}</style><path class="a" d="m0 1000q212.7 0 425.5 0 0-200.2 0-400.4-212.8 0-425.5 0 0 200.2 0 400.4zm0-400.4q212.7 0 425.5 0 0-199.5 0-399.1-212.8 0-425.5 0 0 199.6 0 399.1zm0-399.1q212.7 0 425.5 0 0-100.2 0-200.5-212.8 0-425.5 0 0 100.3 0 200.5zm425.5 799.5q240.4 0 480.9 0 0-200.2 0-400.4-240.5 0-480.9 0 0 200.2 0 400.4zm0-400.4q240.4 0 480.9 0 0-199.5 0-399.1-240.5 0-480.9 0 0 199.6 0 399.1zm0-399.1q240.4 0 480.9 0 0-100.2 0-200.5-240.5 0-480.9 0 0 100.3 0 200.5zm480.9 799.5q296.8 0 593.6 0 0-200.2 0-400.4-296.8 0-593.6 0 0 200.2 0 400.4zm0-400.4q296.8 0 593.6 0 0-199.5 0-399.1-296.8 0-593.6 0 0 199.6 0 399.1zm0-399.1q296.8 0 593.6 0 0-100.2 0-200.5-296.8 0-593.6 0 0 100.3 0 200.5z"/><g clip-path="url(#cp1)"><path class="b" d="m959.6 978.2c0 36.2 14.7 68.9 38.4 92.6 23.7 23.7 56.4 38.4 92.6 38.4 12 0 23.6-1.6 34.7-4.7 12.4-67.8 15.9-135.8 7.4-204.4-50.6-7.5-113.3-3.9-159.4 19.7-8.8 17.6-13.7 37.4-13.7 58.4zm13.7-58.4c46.1-23.6 108.8-27.2 159.4-19.7-2.2-17.8-4.9-34.3-7.4-48.2-11.1-3.1-22.7-4.7-34.7-4.7-36.2 0-68.9 14.7-92.6 38.4-10 9.9-18.3 21.5-24.7 34.2zm152 184.7c22.2-6 42.1-17.8 57.9-33.7 23.7-23.7 38.4-56.4 38.4-92.6 0-21-5-40.8-13.7-58.4-19.1-9.8-49.7-15.9-75.2-19.7 8.5 68.6 5 136.6-7.4 204.4zm7.4-204.4c25.5 3.8 56.1 9.9 75.2 19.7-6.4-12.7-14.7-24.3-24.7-34.2-15.8-15.9-35.7-27.7-57.9-33.7 2.5 13.9 5.2 30.4 7.4 48.2z"/><path class="c" d="m20.3 1104c35.7 5.8 70.3-3.5 97.5-23.2 27.1-19.6 46.8-49.7 52.5-85.4 1.9-11.8 2.1-23.6 0.9-34.9-65.1-23.1-131.7-37.3-200.7-39.7-15.4 48.7-21.8 111.2-5.7 160.5 16 11.4 34.7 19.4 55.5 22.7zm-55.5-22.7c-16.1-49.3-9.7-111.8 5.7-160.5-17.9-0.6-34.6-0.6-48.8-0.3-4.7 10.4-8.2 21.7-10.1 33.5-5.7 35.7 3.6 70.4 23.3 97.5 8.2 11.4 18.3 21.5 29.9 29.8zm206.4-120.8c-2.5-23-11-44.5-24.1-62.6-19.7-27.1-49.7-46.8-85.4-52.5-20.7-3.3-41.1-1.6-59.8 4.3-12.7 17.3-23.7 46.5-31.4 71.1 69 2.4 135.6 16.6 200.7 39.7zm-200.7-39.7c7.7-24.6 18.7-53.8 31.4-71.1-13.6 4.2-26.3 10.7-37.8 18.9-18.1 13.2-32.9 30.9-42.4 51.9 14.2-0.3 30.9-0.3 48.8 0.3z"/><path class="d" d="m1290.3 847.2c6.2 6.2 14.1 10.6 22.9 12.5-0.6-4.9-1.2-10.6-1.9-16.6-10-1.2-22.1-3.6-29.4-7.5 2.2 4.3 5 8.2 8.4 11.6zm-13.5-32.6c0 7.6 1.9 14.7 5.1 21 7.3 3.9 19.4 6.3 29.4 7.5-2.5-24.8-1-48.8 1.9-73.5-8.8 1.9-16.7 6.3-22.9 12.5-8.3 8.3-13.5 19.8-13.5 32.5zm36.4 45.1q4.7 1 9.7 1c12.7 0 24.2-5.2 32.5-13.5 3.4-3.4 6.3-7.3 8.5-11.6-15.1 8.1-35.8 9.5-52.6 7.5 0.7 6 1.3 11.7 1.9 16.6zm-1.9-16.6c16.8 2 37.5 0.6 52.6-7.5 3.2-6.3 5-13.4 5-21 0-12.7-5.1-24.2-13.5-32.5-8.3-8.4-19.8-13.5-32.5-13.5q-5 0-9.7 1c-2.9 24.7-4.4 48.7-1.9 73.5z"/><path class="e" d="m37.5 564.2c11.7 18.3 30.6 31.2 51.9 35.6 1.4-6.5 2.9-13.5 4.6-20.8-22.5-4.7-48.7-13.7-64.6-31.2 2 5.8 4.8 11.3 8.1 16.4zm-11-60.9c-3.4 15.4-2.1 30.7 2.9 44.5 15.9 17.5 42.1 26.5 64.6 31.2 10.2-45.7 19.8-91.6 29.7-137.3-21.1-4.9-43.7-1-61.9 10.7-17.4 11.2-30.6 29.1-35.3 50.9zm62.9 96.5c21.4 4.3 42.7-0.2 59.9-11.3 5.1-3.3 9.9-7.1 14.1-11.5-18.1 7.7-46.4 6.8-69.4 2-1.7 7.3-3.2 14.3-4.6 20.8zm4.6-20.8c23 4.8 51.3 5.7 69.4-2 10.3-10.5 17.8-23.9 21.2-39.3 4.7-21.8 0.2-43.5-11-60.9-11.1-17.2-28.5-30.2-49.9-35.1-9.9 45.7-19.5 91.6-29.7 137.3z"/><path class="f" d="m382.4 110c5.9-12.4 11-24.3 17.2-35.6 20.1-36.6 64.4-52 90.5-83.6 4.6-5.5 8.5-11.8 11.2-18.5 1.9-4.8 3.1-9.7 3.5-14.9 1.1-16.8-4-31-13.1-43-34.9 25.8-74.5 44.4-109.1 70.8-37.8 28.7-61.3 70.8-96.8 102 19.8 21.6 39.5 44.2 62.9 62.1 13.7-9 25.4-22 33.7-39.3zm-33.7 39.3c-23.4-17.9-43.1-40.5-62.9-62.1-7.1 6.2-14.4 12-21.8 17.2 19 20.7 40.2 39.7 63.5 55.2 7.4-2.5 14.5-6 21.2-10.3zm-21.2 10.3c-23.3-15.5-44.5-34.5-63.5-55.2-17.3 12.4-36.9 23.8-51.2 32.2 17.7 14.6 39.6 24.1 62 27.4 17.8 2.6 36 1.3 52.7-4.4zm55.1-174.4c34.6-26.4 74.2-45 109.1-70.8-4.9-6.4-11.1-12.2-18.1-17.3-41.4 22.2-85.9 42.4-123.1 71.5-33.2 26-58 60.8-88 90.5 7.4 9.1 15.5 19.3 23.3 28.1 35.5-31.2 59-73.3 96.8-102zm-96.8 102c-7.8-8.8-15.9-19-23.3-28.1-6.6 6.6-13.5 12.9-20.9 18.8 7.1 9.1 14.6 17.9 22.4 26.5 7.4-5.2 14.7-11 21.8-17.2zm-21.8 17.2c-7.8-8.6-15.3-17.4-22.4-26.5-17.5 14.2-35 27-48.3 38.2 5.6 7.7 12.2 14.5 19.5 20.5 14.3-8.4 33.9-19.8 51.2-32.2zm86.5-135.8c37.2-29.1 81.7-49.3 123.1-71.5-23.1-17-55.5-26.6-84.4-29.9-14.3-1.6-27.8-1.7-38.9-0.3-54.7 6.8-106.6 36.7-141.6 79.1q-3.3 4-6.3 8.2c12.8 37.6 34.1 72.7 60.1 104.9 30-29.7 54.8-64.5 88-90.5zm-88 90.5c-26-32.2-47.3-67.3-60.1-104.9-4.5 6.2-8.6 12.7-12.2 19.5 9 38.8 27 73.1 51.4 104.2 7.4-5.9 14.3-12.2 20.9-18.8zm-20.9 18.8c-24.4-31.1-42.4-65.4-51.4-104.2-8.2 15.4-14 32.1-16.9 49.2-4.2 25.1-1.9 51 9 74.7 3 6.6 6.7 12.8 11 18.5 13.3-11.2 30.8-24 48.3-38.2z"/><path class="g" d="m346.3 956.4c33.2 7.7 66.6 10.1 99.5 6.2 20.9-2.5 41.6-7.5 61.9-15.4 45.8-17.9 69.6-43.4 41.5-71.5-6.1-6.1-14.7-12.4-26-18.7-52.2-29.2-95.6-74.1-123-127.4-19.1-37.1-30.5-77.8-48-115.7q-0.1-0.3-0.3-0.5c-14.8 14.8-29.3 30-43.2 45.7-27.9 31.6-52.8 65.8-75.9 101-22.6 34.5-42.1 71.7-56 110.7 48.5 41.5 107.2 71.2 169.5 85.6zm-174.3-89.8q2.3 2.1 4.8 4.2c13.9-39 33.4-76.2 56-110.7 23.1-35.2 48-69.4 75.9-101 13.9-15.7 28.4-30.9 43.2-45.7-17.5-37.8-43.1-74.1-80.7-91.9-24.7-11.7-52.6-13.6-79.2-7.8-29.8 6.5-57.9 22.6-77.9 45.7-37.9 43.7-48.3 107.3-34.6 163.5q0.1 0.5 0.3 1c13.8 55.8 49.1 104.6 92.2 142.7z"/><path class="h" d="m393.1 446.4c3.7 3.7 8.2 6.6 13.2 8.3-0.9-3.4-1.7-7.4-2.4-11.7-5.7-1.1-12.6-2.7-17-5 1.6 3.1 3.7 6 6.2 8.4zm-10-24.2c0 5.7 1.3 11 3.8 15.8 4.4 2.3 11.3 3.9 17 5-2.7-17.6-2.2-36 2.4-53.3-5 1.7-9.5 4.6-13.2 8.3-6.2 6.2-10 14.7-10 24.2zm23.2 32.5c3.5 1.1 7.2 1.8 11 1.8 9.5 0 18.1-3.9 24.3-10.1 2.5-2.4 4.6-5.3 6.2-8.4-12.2 6.6-30.5 7.6-43.9 5 0.7 4.3 1.5 8.3 2.4 11.7zm-2.4-11.7c13.4 2.6 31.7 1.6 43.9-5 2.4-4.8 3.8-10.1 3.8-15.8 0-9.5-3.8-18-10-24.2-6.2-6.2-14.8-10.1-24.3-10.1-3.8 0-7.5 0.7-11 1.8-4.6 17.3-5.1 35.7-2.4 53.3z"/><path class="i" d="m1452.7 472c5.9 5.8 13 10.3 21 13-1.5-5.3-2.8-11.6-3.8-18.5-9.1-1.8-20.1-4.2-27-8 2.6 5 5.9 9.5 9.8 13.5zm-15.9-38.4c0 9 2.2 17.5 6.1 24.9 6.9 3.8 17.9 6.2 27 8-4.4-27.9-3.6-57.1 3.8-84.4-8 2.7-15.1 7.2-21 13.1-9.8 9.8-15.9 23.4-15.9 38.4zm36.9 51.4c5.5 1.9 11.3 2.9 17.4 2.9 15 0 28.6-6.1 38.5-15.9 3.9-4 7.2-8.5 9.8-13.5-19.4 10.6-48.3 12.1-69.5 8 1 6.9 2.3 13.2 3.8 18.5zm-3.8-18.5c21.2 4.1 50.1 2.6 69.5-8 3.9-7.4 6.1-15.9 6.1-24.9 0-15-6.1-28.6-15.9-38.4-9.9-9.9-23.5-16-38.5-16-6.1 0-11.9 1.1-17.4 2.9-7.4 27.3-8.2 56.5-3.8 84.4z"/><path class="j" d="m827.7 115.7c9.2 33.2 24 64 43.2 92 44 64.6 110.8 115.1 183 148.9-13.1-48.9-13.3-101.6-17.4-151.8-46-19.8-90.5-46-113.6-88.2-10.5-19.2-22.1-37.1-41-51.4-19.8-14.8-42.7-23.6-64.6-22.5 0.3 24.7 3.9 49.3 10.4 73zm-10.4-73.7q0 0.3 0 0.7c21.9-1.1 44.8 7.7 64.6 22.5 18.9 14.3 30.5 32.2 41 51.4 23.1 42.2 67.6 68.4 113.6 88.2-1.9-22.6-3.6-45.2-4.7-67.9-44.5-21.5-87.5-50.3-101.4-100.3-6.3-22.7-14.3-43.3-33.5-58.2-19.7-15.3-44.6-21.2-68.6-12.8-8.3 25.8-11.3 53.8-11 76.4zm11-76.4c24-8.4 48.9-2.5 68.6 12.8 19.2 14.9 27.2 35.5 33.5 58.2 13.9 50 56.9 78.8 101.4 100.3-0.6-12.8-0.9-25.2-0.8-36.2 0-10.9-0.8-20.1 0.5-27.9-10.7-5.5-21-11.7-30.8-18.7-25.6-18.2-46.1-46.1-47.7-77.4-1.1-20 4.3-40.3-7.1-58.3-11.3-17.7-34-30.8-55.2-24.7-8.3 2.4-15.8 6.1-22.4 10.8-19.4 13.8-32.1 36.5-40 61.1zm225.6 391c34.6 16.2 70.5 28.6 105.7 36.8 24.6 5.8 49.7 9.7 74.9 11.6 23.1 1.7 45.9 1.5 67.9-1.4 35.1-39.9 57.1-91.2 61.9-144.1-109.7-5.3-225.8-9.4-327.8-54.7 4.1 50.2 4.3 102.9 17.4 151.8zm-17.4-151.8c102 45.3 218.1 49.4 327.8 54.7 2.1-23.4 0.9-47.2-4.1-70.4-110.3-11.2-224.9-5.3-328.4-52.2 1.1 22.7 2.8 45.3 4.7 67.9zm-5.5-104.1c-0.1 11 0.2 23.4 0.8 36.2 103.5 46.9 218.1 41 328.4 52.2-4.7-21.8-14.3-42.8-26.8-61.2-49.3-8.1-100.4-7.9-149.8-13.9-51-6.1-105.4-17.2-152.1-41.2-1.3 7.8-0.5 17-0.5 27.9zm271.4 302.9c26.4-3.5 51.8-10.7 75.3-22.9 16.4-8.6 31.9-19.6 46.3-33.4 13.9-13.3 24.4-29.4 31.1-47.5 3-8 5.3-16.7 6.9-25.7-30-7.3-64.9-11.5-97.7-14.6-4.8 52.9-26.8 104.2-61.9 144.1zm61.9-144.1c32.8 3.1 67.7 7.3 97.7 14.6 3.5-20.6 2.9-42.8-3.6-62.4-30.4-14.6-65-19-98.2-22.6 5 23.2 6.2 47 4.1 70.4zm-4.1-70.4c33.2 3.6 67.8 8 98.2 22.6-3-9-7.3-17.4-13-24.8-6.7-8.8-14.3-16.5-22.7-23.2-21.5-17.3-47.8-27.8-75.4-33.3q-6.9-1.4-13.9-2.5c12.5 18.4 22.1 39.4 26.8 61.2z"/><path class="k" d="m1159.1 422.8c4.2 13.1 8.6 25.3 11.8 37.7 10.5 40.5-11.3 82-8.7 122.9 0.5 7.2 1.9 14.5 4.6 21.2 1.9 4.7 4.4 9.2 7.6 13.2 16.5 20.1 39.6 25.6 64.1 22.6 15-44.5 33.5-89.8 40.6-136.4 7.8-51-2.5-102.8 4.5-154.3-39-5.9-79.5-7.2-118.5-0.7-11.2 21.3-14.7 46.6-6 73.8zm6-73.8c39-6.5 79.5-5.2 118.5 0.7 3-22.3 7.1-43.5 9.1-60.9-32.1-5.9-65.9 2.7-92.1 20.9-14.9 10.4-27.3 23.8-35.5 39.3zm114 155c-7.1 46.6-25.6 91.9-40.6 136.4 28.4-3.5 58.6-18.6 81.9-36 11.6-8.7 21.5-17.9 28.6-26.4 35.2-42.5 52.5-99.8 49-154.6-0.7-11.1-2.6-22.1-5.5-33-33.1-22.1-69.7-34.7-108.9-40.7-7 51.5 3.3 103.3-4.5 154.3zm4.5-154.3c39.2 6 75.8 18.6 108.9 40.7-4.6-16.7-11.7-32.9-21.4-47.3-14.1-21.2-33.5-38.5-57.7-48.3-6.7-2.7-13.7-4.7-20.7-6-2 17.4-6.1 38.6-9.1 60.9z"/></g></svg>