<svg version="1.2" xmlns="http://www.w3.org/2000/svg" viewBox="0 0 750 500" width="750" height="500"><defs><clipPath clipPathUnits="userSpaceOnUse" id="cp1"><path d="m0 0h750v500h-750z"/></clipPath><linearGradient id="P" gradientUnits="userSpaceOnUse"/><linearGradient id="g1" x1="24.5" y1="-139.1" x2="688.6" y2="-27.3" href="#P"><stop stop-color="#040610"/><stop offset="1" stop-color="#1a4a77"/></linearGradient><linearGradient id="g2" x1="259" y1="100.2" x2="271.8" y2="137.2" href="#P"><stop stop-color="#94aab4"/><stop offset="1" stop-color="#144492"/></linearGradient><linearGradient id="g3" x1="202.3" y1="459.9" x2="260.5" y2="393.6" href="#P"><stop stop-color="#012b6e"/><stop offset=".99" stop-color="#8babba"/><stop offset="1" stop-color="#8babba"/></linearGradient><linearGradient id="g4" x1="471.5" y1="140.8" x2="503" y2="132.3" href="#P"><stop stop-color="#0647b0"/><stop offset="1" stop-color="#fff"/></linearGradient><linearGradient id="g5" x1="447.2" y1="635" x2="515.6" y2="407" href="#P"><stop stop-color="#002a6d"/><stop offset="1" stop-color="#002053"/></linearGradient><linearGradient id="g6" x1="69.1" y1="-201.3" x2="137.8" y2="27.6" href="#P"><stop stop-color="#00368c"/><stop offset="1" stop-color="#001536"/></linearGradient><radialGradient id="g7" cx="463.8" cy="351.1" r="450.8" href="#P"><stop stop-color="#fff"/><stop offset="1"/></radialGradient><radialGradient id="g8" cx="221.2" cy="152.1" r="348.1" href="#P"><stop stop-color="#fff"/><stop offset="1"/></radialGradient><radialGradient id="g9" cx="412.7" cy="313" r="215.7" href="#P"><stop stop-color="#fff"/><stop offset=".75" stop-color="#040000"/></radialGradient><radialGradient id="g10" cx="462.6" cy="275.7" r="77.6" href="#P"><stop stop-color="#00042a"/><stop offset="1"/></radialGradient><radialGradient id="g11" cx="649.5" cy="384.9" r="167.8" href="#P"><stop stop-color="#000540"/><stop offset="1"/></radialGradient><radialGradient id="g12" cx="33.2" cy="310" r="450.8" href="#P"><stop stop-color="#000751"/><stop offset="1"/></radialGradient><radialGradient id="g13" cx="217.8" cy="120.6" r="248.6" href="#P"><stop stop-color="#2e7894"/><stop offset="1"/></radialGradient></defs><style>.a{fill:url(#g1)}.b{fill:url(#g2)}.c{fill:url(#g3)}.d{fill:url(#g4)}.e{fill:url(#g5)}.f{fill:url(#g6)}.g{mix-blend-mode:color-dodge;fill:url(#g7)}.h{mix-blend-mode:color-dodge;fill:url(#g8)}.i{mix-blend-mode:color-dodge;fill:url(#g9)}.j{mix-blend-mode:color-dodge;fill:url(#g10)}.k{mix-blend-mode:color-dodge;fill:url(#g11)}.l{mix-blend-mode:color-dodge;fill:url(#g12)}.m{mix-blend-mode:color-dodge;fill:url(#g13)}</style><g clip-path="url(#cp1)"><path class="a" d="m-175.7-319.3c0 81.2 0 253.1 0 334.3 103.4 0 96.8-138.4 200.2-138.4 0-81.1 33-114.7 33-195.9-103.4 0-129.8 0-233.2 0zm233.2 0c0 81.2-33 114.8-33 195.9 49.4 0 215.4 19.1 329.9 29.8 0-81.2 63.5-75.2 63.5-156.3-125.4-24.9-311-69.4-360.4-69.4zm360.4 69.4c0 81.1-63.5 75.1-63.5 156.3 44.3 4.1 80.9 7 100 7 0-81.2 70.7-65.9 70.7-147-19.2 0-58.7-6.7-107.2-16.3zm107.2 16.3c0 81.1-70.7 65.8-70.7 147 65.9 0 168.2 75 234.2 75 0-81.1 75.6-113.9 75.6-195-66 0-173.2-27-239.1-27zm239.1 27c0 81.1-75.6 113.9-75.6 195 99.3 0 136.3 10.8 235.6 10.8 0-81.2 11-156.3 11-237.5-99.3 0-71.7 31.7-171 31.7zm-939.9 221.6c0 59.5-245 540.1-245 599.7 103.4 0 394.5-441.1 497.9-441.1 0-59.6-52.7-237.4-52.7-297-103.4 0-96.8 138.4-200.2 138.4zm200.2-138.4c0 59.6 52.7 237.4 52.7 297 49.4 0 83.7-14.8 165-18.4 55.2-112.7 112.2-189.3 112.2-248.8-114.5-10.7-280.5-29.8-329.9-29.8zm329.9 29.8c0 59.5-57 136.1-112.2 248.8 31.4-1.4 119.5 98.9 137.1 104.2 68.2-125.2 75.1-286.5 75.1-346-19.1 0-55.7-2.9-100-7zm100 7c0 59.5-6.9 220.8-75.1 346 218 65.2 97.8 22.2 289.4-59.1 27.4-56.4 19.9-152.3 19.9-211.9-66 0-168.3-75-234.2-75zm234.2 75c0 59.6 7.5 155.5-19.9 211.9 121-51.3 198-9.9 297.4-9.9 0-59.6-41.9-131.7-41.9-191.2-99.3 0-136.3-10.8-235.6-10.8zm-1109.3 626.3c0 40 35.6 75.2 73.9 110 103.5 0 164.3-245.3 267.8-245.3 12.1-108.3 156.2-265.8 156.2-305.8-103.4 0-394.5 441.1-497.9 441.1zm497.9-441.1c0 40-144.1 197.5-156.2 305.8 49.4 0 111.9 85.7 193.8 51.7-2.1-61.7 106.7-330.3 127.4-375.9-81.3 3.6-115.6 18.4-165 18.4zm165-18.4c-20.7 45.6-129.5 314.2-127.4 375.9 31.6-13.1 267.8-67.4 285.7-63.8-5.3-50.8-46.8-161.1-21.2-207.9-17.6-5.3-105.7-105.6-137.1-104.2zm137.1 104.2c-25.6 46.8 15.9 157.1 21.2 207.9 154.3 30.9 87.7-97 227.4-138.2 8.7-45.2 21.9-89.8 40.8-128.8-191.6 81.3-71.4 124.3-289.4 59.1zm289.4-59.1c-18.9 39-32.1 83.6-40.8 128.8 108.9-32.1 222.2 27.1 321.5 27.1 8.7-63.7 16.7-125.7 16.7-165.8-99.4 0-176.4-41.4-297.4 9.9zm-1015.5 524.4c45 40.7 93.8 80.9 93.8 127.8 103.4 0 132.6-100.5 236-100.5 0-46.9-76.2-145.7-62-272.6-103.5 0-164.3 245.3-267.8 245.3zm267.8-245.3c-14.2 126.9 62 225.7 62 272.6 49.4 0 63 42.9 160.3-33.5 0-46.9-26.1-115-28.5-187.4-81.9 34-144.4-51.7-193.8-51.7zm193.8 51.7c2.4 72.4 28.5 140.5 28.5 187.4 37.7-29.5 164.7-36.7 183.8-36.7 0-46.9 79.7-155 73.4-214.5-17.9-3.6-254.1 50.7-285.7 63.8zm285.7-63.8c6.3 59.5-73.4 167.6-73.4 214.5 66 0 300-202.4 366-202.4 0-46.9-75.4-97.3-65.2-150.3-139.7 41.2-73.1 169.1-227.4 138.2zm227.4-138.2c-10.2 53 65.2 103.4 65.2 150.3 99.3 0 135.9 75.5 235.3 75.5 0-47 10.9-124 21-198.7-99.3 0-212.6-59.2-321.5-27.1zm-880.9 523.4c0 107.8 156.8-137.4 156.8-29.6 103.4 0 210.4 27.4 313.9 27.4 0-107.8-234.7 9.5-234.7-98.3-103.4 0-132.6 100.5-236 100.5zm236-100.5c0 107.8 234.7-9.5 234.7 98.3 49.4 0 55.9 7.9 81.4 12.4 0-107.8-155.8-36.3-155.8-144.2-97.3 76.4-110.9 33.5-160.3 33.5zm160.3-33.5c0 107.9 155.8 36.4 155.8 144.2 9.9 1.7 22.6 2.9 41.7 2.9 0-107.8-13.7-76-13.7-183.8-19.1 0-146.1 7.2-183.8 36.7zm183.8-36.7c0 107.8 13.7 76 13.7 183.8 66 0 141.9-77.4 207.9-77.4 0-107.8 144.4-200.9 144.4-308.8-66 0-300 202.4-366 202.4zm366-202.4c0 107.9-144.4 201-144.4 308.8 99.3 0 280.3-15.3 379.7-15.3 0-107.9 0-110.2 0-218-99.4 0-136-75.5-235.3-75.5z"/><path class="b" d="m240.3 107.8c0.6 5.4 2.9 10.2 6.1 14.4 1.9-6.8 3-12.2 12.1-22.1-4.3-4.6-6.5-14-7.2-18.6-8.9 9.3-11.8 18.3-11 26.3zm11-26.3c0.7 4.6 2.9 14 7.2 18.6 4.9-5.3 16.8-15.2 24.3-20.3-4.7-4.8-10.6-9.3-11.3-13.6-8.8 5.1-15.4 10.3-20.2 15.3zm45.1-27.3c-9.8 3.9-18 8-24.9 12 0.7 4.3 6.6 8.8 11.3 13.6 10.7-7.4 23.6-12.2 31.8-22.7-3.5-4.6-3.5-10.5-3.4-14.2-2.5 4.3-7 8.1-14.8 11.3zm14.8-11.3c-0.1 3.7-0.1 9.6 3.4 14.2 11.6-14.8 4.8-34.4 5.6-51.4-5-3.2-9.9-5.7-13-6.6 0.1 14.8 11.1 31.3 4 43.8zm4.2-61.6c-6.3 5.3-8.3 11.4-8.2 17.8 3.1 0.9 8 3.4 13 6.6 0.4-9.4 3.7-21.3 12.8-26-3.6-1.8-7.1-2.6-10.6-1.9-2.4 0.4-4.8 1.6-7 3.5zm-69 140.9c2.6 3.4 5.7 6.3 9.1 8.6 3.9-6 5.2-7.2 14.1-16.7-2.9-2.9-7.8-10.3-11.1-14-9.1 9.9-10.2 15.3-12.1 22.1zm12.1-22.1c3.3 3.7 8.2 11.1 11.1 14 4.8-5.1 17.5-19.1 24.2-24.3-2.7-3.2-7.3-6.2-11-10-7.5 5.1-19.4 15-24.3 20.3zm24.3-20.3c3.7 3.8 8.3 6.8 11 10 10.9-8.5 20.9-12.8 28.5-24.3-1.9-2.6-5.3-5.4-7.7-8.4-8.2 10.5-21.1 15.3-31.8 22.7zm31.8-22.7c2.4 3 5.8 5.8 7.7 8.4q1.7-2.6 3.2-5.5c6.9-13.7 8.1-28 9.3-43.1-3-3.2-10.7-8.7-14.6-11.2-0.8 17 6 36.6-5.6 51.4zm5.6-51.4c3.9 2.5 11.6 8 14.6 11.2 0.7-9.3-1.7-24.5 6.3-30.6-2.6-2.8-5.3-5.1-8.1-6.6-9.1 4.7-12.4 16.6-12.8 26zm-64.7 125.1c5.1 3.5 10.8 5.8 15.8 6.4 7.4-4.8 7.7-8 16.4-16.6-4.5-2.3-14-2.2-18.1-6.5-8.9 9.5-10.2 10.7-14.1 16.7zm14.1-16.7c4.1 4.3 13.6 4.2 18.1 6.5 4.7-4.7 15.4-15.6 20.7-20.6-4.4-2.9-10.9-5.7-14.6-10.2-6.7 5.2-19.4 19.2-24.2 24.3zm24.2-24.3c3.7 4.5 10.2 7.3 14.6 10.2 9.3-8.7 18.7-15.6 25-26.4-3.1-3-8.6-4.5-11.1-8.1-7.6 11.5-17.6 15.8-28.5 24.3zm31.7-29.8q-1.5 2.9-3.2 5.5c2.5 3.6 8 5.1 11.1 8.1 8-13.8 7.7-32.1 9.5-47.6-4.2-5.4-4-4.8-8.1-9.1-1.2 15.1-2.4 29.4-9.3 43.1zm9.3-43.1c4.1 4.3 3.9 3.7 8.1 9.1 0.8-9.1 4.6-17.2 8.2-24.5-2.9-6.1-6.3-11.2-10-15.2-8 6.1-5.6 21.3-6.3 30.6zm-63.5 120.3q1.5 0.2 2.8 0.2c6.4 0 12.3-0.7 17.8-2 10.5-2.5 19.5-7.2 27.3-13.2-7.5-3.5-24.1 2.2-31.5-1.6-8.7 8.6-9 11.8-16.4 16.6zm16.4-16.6c7.4 3.8 24-1.9 31.5 1.6 4.2-3.3 8-7 11.6-10.9-6-4.5-16.1-6.9-22.4-11.3-5.3 5-16 15.9-20.7 20.6zm20.7-20.6c6.3 4.4 16.4 6.8 22.4 11.3 6.8-7.4 12.6-15.8 17.6-24.6-3.1-4.9-10.8-8.9-15-13.1-6.3 10.8-15.7 17.7-25 26.4zm25-26.4c4.2 4.2 11.9 8.2 15 13.1 6.6-11.6 10-23.9 11.2-35.8-2.5-7.8-11.7-18.5-16.7-24.9-1.8 15.5-1.5 33.8-9.5 47.6zm9.5-47.6c5 6.4 14.2 17.1 16.7 24.9 0.7-8.1 0.4-16-0.7-23.4-1.4-9.6-4.2-18.5-7.8-26-3.6 7.3-7.4 15.4-8.2 24.5z"/><path class="c" d="m202 460.7c3.4 3.8 8.2 5.4 13.7 4.2q0.2 0 0.4-0.1c-0.3-5.5-3.7-16.8-2.6-25.2-6 1.9-10.4 7.7-16.7 6.5 0.3 6.2 2.2 11.2 5.2 14.6zm-5.2-14.6c6.3 1.2 10.7-4.6 16.7-6.5 1.5-12.1 7.9-22.7 13.9-36.5-6.2 2.8-13.9 5.9-19.8 10.4-8 12.2-11.1 23.6-10.8 32.6zm17.4-41.6q-3.7 4.6-6.6 9c5.9-4.5 13.6-7.6 19.8-10.4 3-7.1 7.2-13.4 10.8-20.1-5.8 3.5-11.9 8.4-18.2 15.1q-2.9 3-5.8 6.4zm1.9 60.3c9.5-2.1 11.1-5.8 21.6-11.9 4.5-5.7 0.9-18.1 4.5-26.6-10.9 4.3-17.6 9.7-28.7 13.3-1.1 8.4 2.3 19.7 2.6 25.2zm-2.6-25.2c11.1-3.6 17.8-9 28.7-13.3 5.2-12.2 17-21.3 18.9-33-11.7 0.4-23.2 4.9-33.7 9.8-6 13.8-12.4 24.4-13.9 36.5zm13.9-36.5c10.5-4.9 22-9.4 33.7-9.8 0.6-3.3 1-6.4 1.2-9.3 0-2.4 1.3-5.6 1-7.7-7.2-0.8-15.8 1.1-25.1 6.7-3.6 6.7-7.8 13-10.8 20.1zm10.3 49.8c4.2-2.4 9.8-5.2 17.8-8.4 5-2 9.3-4.3 13-6.9 7.3-5 12.3-10.9 15.3-17.1-11.2 3.7-30.5 1.7-41.6 5.8-3.6 8.5 0 20.9-4.5 26.6zm4.5-26.6c11.1-4.1 30.4-2.1 41.6-5.8 4.4-9 4.7-18.4 1.9-26.3-7.3-2.9-17-1.2-24.6-0.9-1.9 11.7-13.7 20.8-18.9 33zm20.1-42.3c-0.2 2.9-0.6 6-1.2 9.3 7.6-0.3 17.3-2 24.6 0.9-1.4-3.9-3.5-7.3-6.3-10.2-4.1-4.2-9.6-7-16.1-7.7 0.3 2.1-1 5.3-1 7.7z"/><path class="d" d="m471.4 140.6c-1.5 4.2-2.2 8.6-2 13 3.2-2.7 6.7-5.4 10.4-8-3.3-3.2-3.4-11.5-3.2-15.1-2.2 3-4 6.5-5.2 10.1zm5.2-10.1c-0.2 3.6-0.1 11.9 3.2 15.1 6.4-4.6 16.6-10.5 23.6-13.7-2.7-4.7-9.8-10.8-12.3-13.2-5.6 2.1-10.7 6.4-14.5 11.8zm14.5-11.8c2.5 2.4 9.6 8.5 12.3 13.2 6-2.8 8.8-3.2 14.5-3.8-3.8-4.8-7.8-7.9-11.9-9.5-5.1-1.9-10.2-1.7-14.9 0.1zm-21.7 34.9c0.2 4.8 1.5 9.5 4.3 13.7 4-1.2 21.9-6.8 26.6-8.6-8-8.5-12.3-5.2-20.5-13.1-3.7 2.6-7.2 5.3-10.4 8zm10.4-8c8.2 7.9 12.5 4.6 20.5 13.1 8.2-3.1 7.9-4.4 14.7-7.5-5.2-4.9-8.1-13.1-11.6-19.3-7 3.2-17.2 9.1-23.6 13.7zm23.6-13.7c3.5 6.2 6.4 14.4 11.6 19.3 5.7-2.6 8.9-3 13.6-4.8-2.2-5-5.3-10.5-9.3-16.4q-0.7-1-1.4-1.9c-5.7 0.6-8.5 1-14.5 3.8zm-29.7 35.4c2.3 3.6 5.6 6.9 10.1 9.6 4.3 2.5 8.6 4.5 12.6 6 4.3 1.5 8.5 2.4 12.3 2.8 5.7-7.6 5-12.6-8.4-27-4.7 1.8-22.6 7.4-26.6 8.6zm26.6-8.6c13.4 14.4 14.1 19.4 8.4 27 6.7 0.5 12.4-0.8 16.6-3.7 1.8-5.2 1.5-14.5 0.4-18.1-1.3-3.8-5.4-7.6-10.7-12.7-6.8 3.1-6.5 4.4-14.7 7.5zm14.7-7.5c5.3 5.1 9.4 8.9 10.7 12.7 1.1 3.6 1.4 12.9-0.4 18.1 3.7-2.4 6.2-6.1 7.3-10.9 1.5-6.4 0.4-14.7-4-24.7-4.7 1.8-7.9 2.2-13.6 4.8z"/><path class="e" d="m446.8 636.3c22.6 19.9 51.2 35.3 83.5 45.4-2.9-4.5-5.3-12.9-7.7-17.9-12.6-23-18.8-66.6-17.5-99.7-41.8-5.8-79.7-13.7-109.9-24.2 4.1 38.3 22.9 71 51.6 96.4zm-52.3-119.1q-0.5 11.6 0.7 22.7c30.2 10.5 68.1 18.4 109.9 24.2 1.8-45.7 22.4-86.4 47.9-123.4-43 0.1-82.2 5.9-111.9 6.4-25.4 13.4-44.9 30.5-46.6 70.1zm46.6-70.1c29.7-0.5 68.9-6.3 111.9-6.4 19.2-27.9 40.1-54.6 56.2-84.5-37 13.8-71.2 31.1-93.2 49.9-24.1 19.9-51.9 29-74.9 41zm74.9-41c22-18.8 56.2-36.1 93.2-49.9 14.4-27.8 26.3-62.8 30.3-103.8-29.7 19.5-56.2 44.2-75.8 71.1-9.6 41.1-27.3 65.8-47.7 82.6zm53.8-121.3c-1.3 14.3-3.4 27.2-6.1 38.7 19.6-26.9 46.1-51.6 75.8-71.1 3.9-41.2 3-82.1 13.2-122.6-23.5 16.9-43.7 39.8-58.5 68.4-12.8 24.7-21.4 53.6-24.4 86.6zm-47.2 379c2.4 5 4.8 13.4 7.7 17.9 24.8 7.8 51.8 12.5 79.9 13.7-1.8-4.9-2.5-14.7-3.8-20.1-7.4-24.1-7.1-73.7-1.6-107.5-34.3 1-67.7-0.1-99.7-3.7-1.3 33.1 4.9 76.7 17.5 99.7zm-17.5-99.7c32 3.6 65.4 4.7 99.7 3.7 7.2-45.3 29.4-88.5 47.9-130-33.3 2.3-66.8 2.2-99.7 2.9-25.5 37-46.1 77.7-47.9 123.4zm47.9-123.4c32.9-0.7 66.4-0.6 99.7-2.9 15-33.5 30.3-68.5 41.7-106.3-27.1 5.5-57 14.1-85.2 24.7-16.1 29.9-37 56.6-56.2 84.5zm56.2-84.5c28.2-10.6 58.1-19.2 85.2-24.7 10.5-35.1 17.5-72.6 17.6-113.5-25 7.6-49.7 19.5-72.5 34.4-4 41-15.9 76-30.3 103.8zm30.3-103.8c22.8-14.9 47.5-26.8 72.5-34.4 0.2-38.9-4.5-77.5-0.9-116.4-20.6 5.8-40.5 15.3-58.4 28.2-10.2 40.5-9.3 81.4-13.2 122.6zm-33.1 422.9c1.3 5.4 2 15.2 3.8 20.1 50.6 2.2 104.8-6.8 156.5-29.1 3.3-7.7 5.2-16.5 7.9-24.5 3.3-9.7 5.8-19.6 8.2-29.5 5.5-21.9 10.4-43.9 18.1-65.2-63.7 10-134.1 18.9-196.1 20.7-5.5 33.8-5.8 83.4 1.6 107.5zm-1.6-107.5c62-1.8 132.4-10.7 196.1-20.7 13.9-38.6 28.6-84.2 39.5-132.1-54.9 2.9-134.1 19.3-187.7 22.8-18.5 41.5-40.7 84.7-47.9 130zm47.9-130c53.6-3.5 132.8-19.9 187.7-22.8 8.2-35.9 14.2-73.1 16.2-109.6-49.1-1.7-114.9 15.7-162.2 26.1-11.4 37.8-26.7 72.8-41.7 106.3zm41.7-106.3c47.3-10.4 113.1-27.8 162.2-26.1 1.8-34.5 0.1-68.4-6.9-100-45.2-5.2-94.2-0.6-137.7 12.6-0.1 40.9-7.1 78.4-17.6 113.5zm17.6-113.5c43.5-13.2 92.5-17.8 137.7-12.6-6.4-31.7-14-69.7-24.3-98.3-36.5-14.5-76.8-16-114.3-5.5-3.6 38.9 1.1 77.5 0.9 116.4zm70.8 394.3c-2.4 9.9-4.9 19.8-8.2 29.5-2.7 8-4.6 16.8-7.9 24.5 37.5-16.1 73.7-39.3 106.3-70.2q6.4-6 12.6-12.5c18.7-19.6 34.5-42.7 47-68.1-42.9 14.9-86.9 24.5-131.7 31.6-7.7 21.3-12.6 43.3-18.1 65.2zm18.1-65.2c44.8-7.1 88.8-16.7 131.7-31.6 17-34.5 28-73.2 32.6-112.9-9.1 0.2-22 3.8-31.5 3.8-26.6 0.4-64.2 7.3-93.3 8.6-10.9 47.9-25.6 93.5-39.5 132.1zm39.5-132.1c29.1-1.3 66.7-8.2 93.3-8.6 9.5 0 22.4-3.6 31.5-3.8 3.4-29.8 3.2-60.3-0.9-90-7.9-2.1-18.7-0.3-27.2-2.4-22.8-5.3-54.1-3.5-80.5-4.8-2 36.5-8 73.7-16.2 109.6zm16.2-109.6c26.4 1.3 57.7-0.5 80.5 4.8 8.5 2.1 19.3 0.3 27.2 2.4-3.9-28.1-11.2-55.6-22.2-81.4-7.3-3.6-15.6-5.3-23.5-8.6-20.8-8.7-44.3-14.4-68.9-17.2 7 31.6 8.7 65.5 6.9 100zm-6.9-100c24.6 2.8 48.1 8.5 68.9 17.2 7.9 3.3 16.2 5 23.5 8.6-11.3-26.5-26.5-51.2-45.8-72.8q-8.4-9.4-17.9-18c-16.1-14.7-34-25.7-53-33.3 10.3 28.6 17.9 66.6 24.3 98.3z"/><path class="f" d="m74.7-203.6c-29.7-4.2-62.1-1.3-94.7 8.1 5 2.2 11.6 7.8 16.3 10.7 23.2 12.2 52.4 45.2 69.6 73.5 38.1-18.1 74.1-32.4 105.1-40.3-24.5-29.7-58.3-46.6-96.3-52zm109.3 70.6q-6-10-13-18.6c-31 7.9-67 22.2-105.1 40.3 23.7 39.2 28.9 84.5 28 129.5 35.8-23.8 65.3-50.3 89.8-67.1 13.8-25.1 20.7-50.1 0.3-84.1zm-0.3 84.1c-24.5 16.8-54 43.3-89.8 67.1-0.7 33.8-3.5 67.6-0.4 101.4 23.2-31.9 42.3-65.2 50.3-93 9.1-29.8 27.4-52.7 39.9-75.5zm-39.9 75.5c-8 27.8-27.1 61.1-50.3 93 3.2 31.2 12.6 66.9 31.8 103.3 14.1-32.6 22.6-67.8 24.2-101.1-14.6-39.5-13.5-69.9-5.7-95.2zm21.9 130.9c-6.8-12.7-12.1-24.5-16.2-35.7-1.6 33.3-10.1 68.5-24.2 101.1 19.4 36.6 42.8 70.2 56.5 109.6 10.3-27 14.6-57.3 11.2-89.2-2.9-27.7-11.6-56.6-27.3-85.8zm-169.4-342.3c-4.7-2.9-11.3-8.5-16.3-10.7-25 7.1-50 18.1-74.2 32.6 4.2 3.1 10.2 10.9 14.3 14.6 19.4 16.1 46.5 57.7 60.5 88.8 28.1-19.7 56.6-37.2 85.3-51.8-17.2-28.3-46.4-61.3-69.6-73.5zm69.6 73.5c-28.7 14.6-57.2 32.1-85.3 51.8 18.9 41.8 24.2 90.1 31.6 134.9 26.6-20.2 54.5-38.5 81.7-57.2 0.9-45-4.3-90.3-28-129.5zm28 129.5c-27.2 18.7-55.1 37-81.7 57.2 6 36.3 12.4 74 23.8 111.8 19.5-19.6 39.7-43.2 57.5-67.6-3.1-33.8-0.3-67.6 0.4-101.4zm-0.4 101.4c-17.8 24.4-38 48-57.5 67.6 10.6 35 25.3 70.2 47.7 104.4 16.8-20.1 30.8-43.7 41.6-68.7-19.2-36.4-28.6-72.1-31.8-103.3zm31.8 103.3c-10.8 25-24.8 48.6-41.6 68.7 21.3 32.5 46.5 62.2 64.9 96.6 14-16.2 25.4-35 33.2-55.7-13.7-39.4-37.1-73-56.5-109.6zm-205.2-371.2c-4.1-3.7-10.1-11.5-14.3-14.6-43.4 26-83.7 63.3-114.6 110.4 1.5 8.3 4.8 16.6 6.9 24.8 2.6 9.9 6 19.5 9.4 29.2 7.5 21.3 15.5 42.4 20.9 64.4 47.6-43.5 101.4-89.7 152.2-125.4-14-31.1-41.1-72.7-60.5-88.8zm60.5 88.8c-50.8 35.7-104.6 81.9-152.2 125.4 9.6 39.8 22.4 86 39.7 132 44.3-32.7 101.3-90 144.1-122.5-7.4-44.8-12.7-93.1-31.6-134.9zm31.6 134.9c-42.8 32.5-99.8 89.8-144.1 122.5 13 34.4 28.4 68.8 46.9 100.4 41.8-25.6 87.2-76.4 121-111.1-11.4-37.8-17.8-75.5-23.8-111.8zm23.8 111.8c-33.8 34.7-79.2 85.5-121 111.1 17.4 29.8 37.5 57.1 60.8 79.7 40.5-20.6 79-51.4 107.9-86.4-22.4-34.2-37.1-69.4-47.7-104.4zm47.7 104.4c-28.9 35-67.4 65.8-107.9 86.4 22.8 22.8 50 50.4 74.4 68.6 38.5-8 72.9-28.9 98.4-58.4-18.4-34.4-43.6-64.1-64.9-96.6zm-276.2-290.1c-3.4-9.7-6.8-19.3-9.4-29.2-2.1-8.2-5.4-16.5-6.9-24.8-22.4 34.1-39.9 73.4-50.1 117.1q-1.9 8.6-3.5 17.4c-4.9 26.7-5.3 54.6-1.8 82.7 27.6-36 59.1-68.2 92.6-98.8-5.4-22-13.4-43.1-20.9-64.4zm20.9 64.4c-33.5 30.6-65 62.8-92.6 98.8 4.8 38.2 16.9 76.5 35 112.3 7.5-5.2 16.2-15.4 24.2-20.6 21.9-15 49.5-41.4 73.1-58.5-17.3-46-30.1-92.2-39.7-132zm39.7 132c-23.6 17.1-51.2 43.5-73.1 58.5-8 5.2-16.7 15.4-24.2 20.6 13.5 26.7 30.5 52 50.3 74.5 7.7-2.5 15.8-9.9 24-12.9 22-8.2 47.1-26.9 69.9-40.3-18.5-31.6-33.9-66-46.9-100.4zm46.9 100.4c-22.8 13.4-47.9 32.1-69.9 40.3-8.2 3-16.3 10.4-24 12.9 18.7 21.4 40 40.3 63.3 55.8 8.1-1 15.9-4.2 24.3-5.8 22.2-4.1 45-12.3 67.1-23.5-23.3-22.6-43.4-49.9-60.8-79.7zm60.8 79.7c-22.1 11.2-44.9 19.4-67.1 23.5-8.4 1.6-16.2 4.8-24.3 5.8 24.1 15.9 50.4 28.1 78.4 35.5q12.2 3.3 24.8 5.2c21.5 3.4 42.6 2.7 62.6-1.4-24.4-18.2-51.6-45.8-74.4-68.6z"/><path class="g" d="m859.1 117.2c0 93.7-75.9 169.6-169.5 169.6-93.7 0-169.6-75.9-169.6-169.6 0-93.6 75.9-169.5 169.6-169.5 93.6 0 169.5 75.9 169.5 169.5z"/><path class="h" d="m242.2 473c0 93.7-75.9 169.6-169.6 169.6-93.6 0-169.5-75.9-169.5-169.6 0-93.6 75.9-169.5 169.5-169.5 93.7 0 169.6 75.9 169.6 169.5z"/><path class="i" d="m324.6 368.5c0 40-32.5 72.5-72.6 72.5-40.1 0-72.6-32.5-72.6-72.5 0-40.1 32.5-72.6 72.6-72.6 40.1 0 72.6 32.5 72.6 72.6z"/><path class="j" d="m466.2 354.6c-14.3-7.5-19.7-25.2-12.1-39.4 7.6-14.2 25.3-19.6 39.5-12.1 14.2 7.6 19.6 25.3 12 39.5-7.6 14.2-25.2 19.6-39.4 12z"/><path class="k" d="m657.2 555.7c-30.8-16.4-42.4-54.6-26.1-85.4 16.4-30.7 54.7-42.4 85.4-26 30.8 16.4 42.5 54.6 26.1 85.4-16.4 30.7-54.6 42.4-85.4 26z"/><path class="l" d="m12.5-148.9c82.7 44 114 146.7 70 229.3-44 82.7-146.7 114-229.3 70-82.7-44-114-146.6-70-229.3 44-82.6 146.7-114 229.3-70z"/><path class="m" d="m435.8-8.4c0 51.7-41.9 93.5-93.5 93.5-51.7 0-93.5-41.8-93.5-93.5 0-51.6 41.8-93.5 93.5-93.5 51.6 0 93.5 41.9 93.5 93.5z"/></g></svg>